<svg xmlns="http://www.w3.org/2000/svg" width="360" height="360"><defs><clipPath id="a"><path d="M2316.78 378.16l-239.72 53.43c6.01 9.211 12.09 18.73 18.19 28.5 132.02-48.91 221.53-81.93 221.53-81.93"/></clipPath><linearGradient id="b" x2="1" gradientTransform="scale(-665.564 665.564) rotate(21.502 -3.302 -4.381)" gradientUnits="userSpaceOnUse"><stop offset="0" stop-color="#7f2223"/><stop offset="1" stop-color="#731e1f"/></linearGradient><clipPath id="c"><path d="M1916.28 467.43l-686.25 152.961v63.468l602.16-126.129c40.07-14.91 79.27-29.468 116.88-43.441a1363.84 1363.84 0 0 0-32.79-46.859"/></clipPath><linearGradient id="d" x2="1" gradientTransform="scale(-665.564 665.564) rotate(21.502 -3.302 -4.381)" gradientUnits="userSpaceOnUse"><stop offset="0" stop-color="#c6c1bf"/><stop offset="1" stop-color="#b6b1af"/></linearGradient><clipPath id="e"><path d="M1986.13 451.859l-69.85 15.571a1363.84 1363.84 0 0 1 32.79 46.859c22.37-8.301 44.13-16.367 65.25-24.211a1739.385 1739.385 0 0 0-28.19-38.219"/></clipPath><linearGradient id="f" x2="1" gradientTransform="scale(-665.564 665.564) rotate(21.502 -3.302 -4.381)" gradientUnits="userSpaceOnUse"><stop offset="0" stop-color="#7f2223"/><stop offset="1" stop-color="#731e1f"/></linearGradient><clipPath id="g"><path d="M2077.06 431.59l-90.93 20.269c9.7 12.782 19.12 25.563 28.19 38.219 28.33-10.5 55.43-20.547 80.93-29.988-6.1-9.77-12.18-19.289-18.19-28.5"/></clipPath><linearGradient id="h" x2="1" gradientTransform="scale(-665.564 665.564) rotate(21.502 -3.302 -4.381)" gradientUnits="userSpaceOnUse"><stop offset="0" stop-color="#c7c1c0"/><stop offset="1" stop-color="#b6b0af"/></linearGradient><clipPath id="i"><path d="M2323.8 454.75l-205.64 43.078-85.82 17.973-72.28 15.14-127.87 26.789-602.16 126.129V845.93c204.41-75.469 517.84-187.309 756.88-272.11 23.47-8.32 46.2-16.379 68.05-24.121 27.28-9.66 53.2-18.828 77.37-27.379 115.41-40.82 191.47-67.57 191.47-67.57"/></clipPath><linearGradient id="j" x2="1" gradientTransform="scale(-665.818 665.818) rotate(20.763 -3.697 -4.533)" gradientUnits="userSpaceOnUse"><stop offset="0" stop-color="#333232"/><stop offset="1" stop-color="#110f0e"/></linearGradient><clipPath id="k"><path d="M1230.03 372.852H279.988v199.976h222.141c27.082-9.68 53.562-13.777 79.07-13.777 29.141 0 57.028 5.34 83.156 13.777H880.02v114.934c8.082 1.308 16.171 1.847 24.007 1.847 36.184 0 66.985-11.48 66.985-11.48l259.018-57.738V372.852"/></clipPath><clipPath id="l"><path d="M581.199 559.051c-25.508 0-51.988 4.097-79.07 13.777h162.226c-26.128-8.437-54.015-13.777-83.156-13.777m648.831 61.34l-259.018 57.738s-30.801 11.48-66.985 11.48c-7.836 0-15.925-.539-24.007-1.847v57.629c9.828 1.961 19.722 2.738 29.222 2.738 35.266 0 65.008-10.688 65.008-10.688l255.78-53.582v-63.468"/></clipPath><clipPath id="m"><path d="M1230.03 845.93c-86.79 32.039-153.95 57.531-187.38 71.601-85.115 35.86-136.99 92.299-162.63 126.929v428.37h350.01v-626.9"/></clipPath><clipPath id="n"><path d="M1230.03 683.859l-255.78 53.582s-29.742 10.688-65.008 10.688c-9.5 0-19.394-.777-29.222-2.738v299.069c25.64-34.63 77.515-91.069 162.63-126.929 33.43-14.07 100.59-39.562 187.38-71.601V683.859"/></clipPath><clipPath id="o"><path d="M880.02 572.828H664.355c82.688 26.711 147.75 84.473 178.946 102.332 11.578 6.66 24.14 10.559 36.719 12.602V572.828m-377.891 0H279.988v900.002H880.02v-428.37c-3.207 4.33-6 8.32-8.403 11.89-19.027 51.82-53.113 95.99-101.039 124.97-37.875 22.91-80.121 33.77-123.18 33.77-101.707 0-207.937-60.6-271.738-166.07a386.511 386.511 0 0 1-8.711-15.2c-26.554-42.039-38.168-84.281-40.859-123.75a332.65 332.65 0 0 1-3.004-44.34C306.016 750.738 378 658.422 378 658.422c41.996-44.293 83.734-71.152 124.129-85.594"/></clipPath><clipPath id="p"><path d="M323.086 865.73a332.65 332.65 0 0 0 3.004 44.34 277.746 277.746 0 0 1-.406-29.89 236.75 236.75 0 0 1-2.598-14.45m43.863 168.09c2.774 5.1 5.672 10.17 8.711 15.2 63.801 105.47 170.031 166.07 271.738 166.07 43.059 0 85.305-10.86 123.18-33.77 47.926-28.98 82.012-73.15 101.039-124.97-7.687 11.42-11.308 18.5-11.308 18.5-37.746 82.52-116.301 127.25-205.45 127.25-83.23 0-175.691-39.01-252.738-122.66-13.891-15.08-25.516-30.34-35.172-45.62"/></clipPath><clipPath id="q"><path d="M664.355 572.828H502.129C461.734 587.27 419.996 614.129 378 658.422c0 0-71.984 92.316-54.914 207.308-.023-94.421 41.281-180.98 118.812-227.832 37.836-22.898 80.051-33.757 123.086-33.757 50.36 0 101.825 14.871 148.704 42.668 60.812 29.921 107.859 71.281 132.941 86.132 10.527 6.219 21.914 10.149 33.391 12.45v-57.629c-12.579-2.043-25.141-5.942-36.719-12.602-31.196-17.859-96.258-75.621-178.946-102.332"/></clipPath><clipPath id="r"><path d="M564.984 604.141c-43.035 0-85.25 10.859-123.086 33.757-77.531 46.852-118.835 133.411-118.812 227.832a236.75 236.75 0 0 0 2.598 14.45c3.859-96.68 55.918-170.102 55.918-170.102 69.929-71.879 138.621-96.726 201.351-96.726 47.746.007 92.039 14.418 130.735 33.457-46.879-27.797-98.344-42.668-148.704-42.668"/></clipPath><clipPath id="s"><path d="M582.953 613.352c-62.73 0-131.422 24.847-201.351 96.726 0 0-52.059 73.422-55.918 170.102a277.746 277.746 0 0 0 .406 29.89c2.691 39.469 14.305 81.711 40.859 123.75 9.656 15.28 21.281 30.54 35.172 45.62 77.047 83.65 169.508 122.66 252.738 122.66 89.149 0 167.704-44.73 205.45-127.25 0 0 3.621-7.08 11.308-18.5 2.403-3.57 5.196-7.56 8.403-11.89V745.391c-11.477-2.301-22.864-6.231-33.391-12.45-25.082-14.851-72.129-56.211-132.941-86.132-38.696-19.039-82.989-33.45-130.735-33.457"/></clipPath></defs><path fill="#231f20" d="M96.86 214.827c-12.096 20.004-35.677 27.912-52.645 17.64-16.98-10.26-20.927-34.8-8.832-54.816 12.108-20.016 35.676-27.912 52.656-17.64 16.968 10.26 20.928 34.8 8.82 54.816"/><path fill="#961a1f" d="M35.78 94.07S143.25 18.856 231.8 76.084c91.175 58.932 19.847 180.504-14.893 204.072l68.652 37.368s113.1-127.92 11.364-233.376c0 0-91.188-97.392-261.144 9.924"/><path fill="#fff" d="M272.347 107.799s48.78 77.508-41.04 171.42l11.856 5.928s87.54-93.924 29.184-177.348"/><g clip-path="url(#a)" transform="matrix(.13333 0 0 -.13333 -14.705 317.52)"><path fill="url(#b)" d="M2316.78 378.16l-239.72 53.43c6.01 9.211 12.09 18.73 18.19 28.5 132.02-48.91 221.53-81.93 221.53-81.93"/></g><g clip-path="url(#c)" transform="matrix(.13333 0 0 -.13333 -14.705 317.52)"><path fill="url(#d)" d="M1916.28 467.43l-686.25 152.961v63.468l602.16-126.129c40.07-14.91 79.27-29.468 116.88-43.441a1363.84 1363.84 0 0 0-32.79-46.859"/></g><g clip-path="url(#e)" transform="matrix(.13333 0 0 -.13333 -14.705 317.52)"><path fill="url(#f)" d="M1986.13 451.859l-69.85 15.571a1363.84 1363.84 0 0 1 32.79 46.859c22.37-8.301 44.13-16.367 65.25-24.211a1739.385 1739.385 0 0 0-28.19-38.219"/></g><g clip-path="url(#g)" transform="matrix(.13333 0 0 -.13333 -14.705 317.52)"><path fill="url(#h)" d="M2077.06 431.59l-90.93 20.269c9.7 12.782 19.12 25.563 28.19 38.219 28.33-10.5 55.43-20.547 80.93-29.988-6.1-9.77-12.18-19.289-18.19-28.5"/></g><g clip-path="url(#i)" transform="matrix(.13333 0 0 -.13333 -14.705 317.52)"><path fill="url(#j)" d="M2323.8 454.75l-205.64 43.078-85.82 17.973-72.28 15.14-127.87 26.789-602.16 126.129V845.93c204.41-75.469 517.84-187.309 756.88-272.11 23.47-8.32 46.2-16.379 68.05-24.121 27.28-9.66 53.2-18.828 77.37-27.379 115.41-40.82 191.47-67.57 191.47-67.57"/></g><path fill="#5a5758" d="M239.82 242.596L110.946 215.24s-9.558-2.699-17.63 3.952c-13.829 11.399-32.522 20.67-51.062 5.47 0 0 20.972 15.806 47.72-7.902 0 0 14.093-14.536 31.914-9.725 19.15 5.168 117.934 35.561 117.934 35.561"/></svg>